<svg xmlns="http://www.w3.org/2000/svg" xmlns:xlink="http://www.w3.org/1999/xlink" width="2000" zoomAndPan="magnify" viewBox="0 0 1500 1499.999933" height="2000" preserveAspectRatio="xMidYMid meet" version="1.0"><defs><clipPath id="f82ef94663"><path d="M 750 0 C 335.785156 0 0 335.785156 0 750 C 0 1164.214844 335.785156 1500 750 1500 C 1164.214844 1500 1500 1164.214844 1500 750 C 1500 335.785156 1164.214844 0 750 0 Z M 750 0 " clip-rule="nonzero"/></clipPath><clipPath id="216f74fec2"><path d="M 241 235 L 1262 235 L 1262 1231 L 241 1231 Z M 241 235 " clip-rule="nonzero"/></clipPath><clipPath id="836aa30a3d"><path d="M 260.941406 171.054688 L 1326.203125 257.347656 L 1239.363281 1329.335938 L 174.101562 1243.042969 Z M 260.941406 171.054688 " clip-rule="nonzero"/></clipPath><clipPath id="7db25fef66"><path d="M 260.941406 171.054688 L 1326.203125 257.347656 L 1239.363281 1329.335938 L 174.101562 1243.042969 Z M 260.941406 171.054688 " clip-rule="nonzero"/></clipPath><clipPath id="e501f8c7a0"><path d="M 63 63 L 1437 63 L 1437 1437 L 63 1437 Z M 63 63 " clip-rule="nonzero"/></clipPath><clipPath id="debbcbfba3"><path d="M 48.707031 1420.941406 L 79.046875 48.777344 L 1451.210938 79.117188 L 1420.871094 1451.28125 Z M 48.707031 1420.941406 " clip-rule="nonzero"/></clipPath><clipPath id="6a6b4cdcf8"><path d="M 48.707031 1420.941406 L 79.046875 48.707031 L 1451.28125 79.046875 L 1420.941406 1451.28125 Z M 48.707031 1420.941406 " clip-rule="nonzero"/></clipPath><clipPath id="6a6ad80324"><path d="M 63.878906 734.824219 C 55.5 1113.757812 355.894531 1427.734375 734.824219 1436.113281 C 1113.757812 1444.488281 1427.734375 1144.097656 1436.113281 765.164062 C 1444.488281 386.230469 1144.097656 72.253906 765.164062 63.878906 C 386.230469 55.5 72.253906 355.894531 63.878906 734.824219 Z M 63.878906 734.824219 " clip-rule="nonzero"/></clipPath><clipPath id="cadecf6e72"><path d="M 75 75 L 1425 75 L 1425 1425 L 75 1425 Z M 75 75 " clip-rule="nonzero"/></clipPath><clipPath id="f7df7ed338"><path d="M 60.96875 1409.210938 L 90.777344 61.039062 L 1438.949219 90.847656 L 1409.140625 1439.019531 Z M 60.96875 1409.210938 " clip-rule="nonzero"/></clipPath><clipPath id="262d8c1790"><path d="M 60.96875 1409.210938 L 90.777344 60.96875 L 1439.019531 90.777344 L 1409.210938 1439.019531 Z M 60.96875 1409.210938 " clip-rule="nonzero"/></clipPath><clipPath id="3205c26c9a"><path d="M 75.875 735.089844 C 67.644531 1107.398438 362.785156 1415.882812 735.089844 1424.113281 C 1107.398438 1432.347656 1415.882812 1137.207031 1424.117188 764.898438 C 1432.347656 392.59375 1137.207031 84.105469 764.898438 75.875 C 392.59375 67.644531 84.105469 362.785156 75.875 735.089844 Z M 75.875 735.089844 " clip-rule="nonzero"/></clipPath></defs><g clip-path="url(#f82ef94663)"><path stroke-linecap="butt" transform="matrix(0.75, 0, 0, 0.75, 0.00003335, -0.00002)" fill="none" stroke-linejoin="miter" d="M 999.999978 0.0000266667 C 447.713507 0.0000266667 -0.0000444667 447.713578 -0.0000444667 1000.000049 C -0.0000444667 1552.286519 447.713507 2000.000071 999.999978 2000.000071 C 1552.286448 2000.000071 2000 1552.286519 2000 1000.000049 C 2000 447.713578 1552.286448 0.0000266667 999.999978 0.0000266667 Z M 999.999978 0.0000266667 " stroke="#0a3d62" stroke-width="200" stroke-opacity="1" stroke-miterlimit="4"/></g><g clip-path="url(#216f74fec2)"><g clip-path="url(#836aa30a3d)"><g clip-path="url(#7db25fef66)"><path fill="#0a3d62" d="M 863.902344 235.644531 C 1107.542969 349.535156 1239.578125 643.210938 1082.582031 873.910156 C 942.261719 1080.175781 625.84375 1070.945312 564.308594 839.996094 C 520.980469 945.597656 652.707031 1061.707031 751.433594 1089.453125 C 1009.566406 1162.128906 1240.871094 933.382812 1259.695312 677.515625 C 1260.734375 659.03125 1261.070312 640.292969 1260.757812 621.503906 C 1270.601562 904.953125 1052.855469 1167.144531 762.921875 1120.957031 C 496.886719 1078.609375 377.128906 760.535156 578.53125 613.414062 C 471.523438 611.765625 409.695312 764.289062 412.96875 859.953125 C 421.546875 1112.066406 683.808594 1262.503906 921.316406 1222.890625 C 938.570312 1219.695312 955.804688 1215.90625 973.023438 1211.460938 C 705.273438 1285.890625 405.074219 1138.816406 382.988281 851.816406 C 363.027344 592.019531 633.78125 405.175781 820.585938 560.585938 C 805.945312 466.757812 657.644531 435.386719 574.609375 450.445312 C 309.578125 498.589844 214.027344 817.132812 325.335938 1050.015625 C 333.355469 1066.015625 341.976562 1081.871094 351.207031 1097.511719 C 207.789062 865.769531 258.988281 543.960938 519.8125 435.179688 C 755.105469 337.058594 1019.457031 523.289062 941.5 753.4375 C 1034.179688 684.964844 988.792969 518.703125 921.191406 440.402344 C 748.097656 239.714844 433.285156 297.339844 273.71875 494.175781 C 262.441406 508.613281 251.589844 523.546875 241.222656 538.914062 C 397.273438 298.03125 731.792969 209.328125 940.964844 419.890625 C 1133.507812 613.753906 1034.242188 942.558594 785.203125 934.984375 C 858.691406 1003.792969 1002.761719 926.167969 1058.746094 855.511719 C 1212.371094 661.542969 1111.832031 382.425781 909.9375 260.238281 C 895.019531 251.617188 879.675781 243.417969 863.902344 235.644531 Z M 863.902344 235.644531 " fill-opacity="1" fill-rule="evenodd"/></g></g></g><g clip-path="url(#e501f8c7a0)"><g clip-path="url(#debbcbfba3)"><g clip-path="url(#6a6b4cdcf8)"><g clip-path="url(#6a6ad80324)"><path stroke-linecap="butt" transform="matrix(0.0165776, -0.749817, 0.749817, 0.0165776, 48.708219, 1420.943066)" fill="none" stroke-linejoin="miter" d="M 915.048726 0.00188199 C 409.680435 0.000371728 0.00028848 409.681833 -0.00133691 915.044918 C 0.00235989 1420.413094 409.678614 1830.093356 915.046906 1830.094866 C 1420.415082 1830.091169 1830.095344 1420.414915 1830.091647 915.046738 C 1830.093157 409.678447 1420.411696 -0.00169969 915.048726 0.00188199 Z M 915.048726 0.00188199 " stroke="#0a3d62" stroke-width="200" stroke-opacity="1" stroke-miterlimit="4"/></g></g></g></g><g clip-path="url(#cadecf6e72)"><g clip-path="url(#f7df7ed338)"><g clip-path="url(#262d8c1790)"><g clip-path="url(#3205c26c9a)"><path stroke-linecap="butt" transform="matrix(0.0165776, -0.749817, 0.749817, 0.0165776, 60.970528, 1409.211195)" fill="none" stroke-linejoin="miter" d="M 899.048185 0.000594157 C 402.515412 0.00170608 0.00152865 402.517835 0.00252545 899.045402 C -0.00156969 1395.57829 402.51456 1798.092173 899.047448 1798.096268 C 1395.575015 1798.095272 1798.094105 1395.579027 1798.092993 899.046254 C 1798.091996 402.518687 1395.575752 -0.000402641 899.048185 0.000594157 Z M 899.048185 0.000594157 " stroke="#0a3d62" stroke-width="200" stroke-opacity="1" stroke-miterlimit="4"/></g></g></g></g></svg>